/* XPM */
static char *d09d2e184998484f86aa298711c6f1cc[] = {
/* columns rows colors chars-per-pixel */
"32 32 221 2 ",
"   c #151616",
".  c #211E1C",
"X  c #21201E",
"o  c #323918",
"O  c #272D2D",
"+  c #353F2C",
"@  c #2D3335",
"#  c #313535",
"$  c #31363A",
"%  c #323D3D",
"&  c #57343C",
"*  c #5A363D",
"=  c #5D393F",
"-  c #374017",
";  c #3D471E",
":  c #505A1B",
">  c #4A5320",
",  c #6B4C3F",
"<  c #5D6E3E",
"1  c #7B643E",
"2  c #7F6B3B",
"3  c #5F3B40",
"4  c #613D40",
"5  c #364142",
"6  c #3E4A4B",
"7  c #444442",
"8  c #4B4946",
"9  c #45554D",
"0  c #48574C",
"q  c #404F50",
"w  c #455555",
"e  c #495556",
"r  c #44535A",
"t  c #485859",
"y  c #565A5A",
"u  c #5C5C5A",
"i  c #664541",
"p  c #6B4A41",
"a  c #705140",
"s  c #536446",
"d  c #54665B",
"f  c #56685C",
"g  c #5F7354",
"h  c #7E6541",
"j  c #62744C",
"k  c #697C4C",
"l  c #62605E",
"z  c #607256",
"x  c #66785A",
"c  c #4C5761",
"v  c #4F5963",
"b  c #4D5F7D",
"n  c #4D6064",
"m  c #4F636E",
"M  c #536464",
"N  c #5C6F64",
"B  c #536669",
"V  c #54686B",
"C  c #5D716E",
"Z  c #566A73",
"A  c #5A6D73",
"S  c #5E7475",
"D  c #5E747B",
"F  c #6A6866",
"G  c #626C6B",
"H  c #6B6A69",
"J  c #60706F",
"K  c #637374",
"L  c #6B7575",
"P  c #637779",
"I  c #6F7779",
"U  c #667C7D",
"Y  c #687E7E",
"T  c #717676",
"R  c #737B7B",
"E  c #816B3D",
"W  c #8A7E35",
"Q  c #84713C",
"!  c #89773D",
"~  c #8C7D3A",
"^  c #778701",
"/  c #7D8D04",
"(  c #72830C",
")  c #7A8C0F",
"_  c #7E9001",
"`  c #728312",
"'  c #798C17",
"]  c #7C901E",
"[  c #728322",
"{  c #778B2F",
"}  c #7B8F2C",
"|  c #7E9221",
" . c #7F922E",
".. c #768B43",
"X. c #788F4B",
"o. c #7F9241",
"O. c #79904F",
"+. c #778E59",
"@. c #788E5B",
"#. c #7E9456",
"$. c #6C8060",
"%. c #748A64",
"&. c #788C6C",
"*. c #6F8572",
"=. c #6A817F",
"-. c #708772",
";. c #72887B",
":. c #839405",
">. c #899A06",
",. c #86990C",
"<. c #899909",
"1. c #899D1C",
"2. c #8EA008",
"3. c #91A209",
"4. c #8DA31C",
"5. c #92A412",
"6. c #9BAE12",
"7. c #91A719",
"8. c #92A91B",
"9. c #A7BA0E",
"0. c #A2B916",
"q. c #AABC16",
"w. c #A7BE1C",
"e. c #ACBE18",
"r. c #938E2D",
"t. c #819520",
"y. c #849923",
"u. c #8B9F24",
"i. c #83962E",
"p. c #869B28",
"a. c #8C9F28",
"s. c #96932B",
"d. c #989729",
"f. c #9D9B2E",
"g. c #8F8337",
"h. c #918735",
"j. c #928935",
"k. c #839733",
"l. c #879A37",
"z. c #83973F",
"x. c #8BA121",
"c. c #8EA42E",
"v. c #95AB24",
"b. c #9EB726",
"n. c #8EA33F",
"m. c #96AC37",
"M. c #9DB632",
"N. c #9EB73E",
"B. c #A2A722",
"V. c #A4AC24",
"C. c #A1A42B",
"Z. c #AAB525",
"A. c #ADBA26",
"S. c #A4BC2C",
"D. c #B0BE25",
"F. c #A4BB34",
"G. c #A3BB38",
"H. c #AEC20F",
"J. c #ADC415",
"K. c #ACC11B",
"L. c #B4CD16",
"P. c #B0C618",
"I. c #B4CC19",
"U. c #B7D217",
"Y. c #B8D11A",
"T. c #ACC320",
"R. c #A8C02F",
"E. c #849A4D",
"W. c #819757",
"Q. c #839957",
"!. c #839A5F",
"~. c #89A04E",
"^. c #93AA4A",
"/. c #9FB44C",
"(. c #8BA255",
"). c #A4BD45",
"_. c #A0B54D",
"`. c #839963",
"'. c #88A06B",
"]. c #97AE7A",
"[. c #556981",
"{. c #667E85",
"}. c #687F84",
"|. c #667D8A",
" X c #687F8A",
".X c #627A91",
"XX c #678081",
"oX c #6B8282",
"OX c #6B838A",
"+X c #748281",
"@X c #75848D",
"#X c #738B8C",
"$X c #7C8A8C",
"%X c #7B9084",
"&X c #6C8591",
"*X c #738790",
"=X c #758B94",
"-X c #798E94",
";X c #7B9294",
":X c #7D939C",
">X c #848E8F",
",X c #898989",
"<X c #80978A",
"1X c #859A8D",
"2X c #80979B",
"3X c #8E9698",
"4X c #9A9997",
"5X c #999D9E",
"6X c #8FA483",
"7X c #92A887",
"8X c #8796A1",
"9X c #8399A3",
"0X c #889FA2",
"qX c #979FA1",
"wX c #95A5AF",
"eX c #A4A4A2",
"rX c #A3A8A7",
"tX c #A7A9A8",
"yX c #AAB0B4",
"uX c #AFB5B9",
"iX c None",
/* pixels */
"iXiXiXiXiXiXiXiXiXiXiXiXiXiXiXiXiXiXiXiXiXiXiXiXiXiXiXiXiXiXiXiX",
"iXiXiXiXiXiXiXiXiXiXiXiXiXiXiXiXiXiXiXiXiXiXiXiXiXiXiXiXiXiXiXiX",
"iXiXiXiXiXiXiXiXiXiXiXiXiXiXiXiXiXiXiXiXiXiXiXiXiXiXiXiXiXiXiXiX",
"iXiXiXiXiXiXiXiXiXiXiX, Q j.f.C.C.f.j.2 p iXiXiXiXiXiXiXiXiXiXiX",
"iXiXiXiXiXiXiXiXiXa g.A.P.0.7.4.x.8.0.P.Z.g.a iXiXiXiXiXiXiXiXiX",
"iXiXiXiXiXiXiX= Q D.J.] < f Z Z Z A N k p.J.Z.E = iXiXiXiXiXiXiX",
"iXiXiXiXiXiXi g.Y.1.s Z {.OXY J L oXOX|.D x v.I.~ 4 iXiXiXiXiXiX",
"iXiXiXiXiX4 g.U.[ n OX+XoXXXM y ,XY =.=.oXOXD k.L.~ * iXiXiXiXiX",
"iXiXiXiXiXQ Y.[ m #X=.XXY oXY y T Y }.}.}.=.oX{.l.L.E iXiXiXiXiX",
"iXiXiXiXa D.1.n oXXXXX=.=.=.U U Y Y =.Y =.oX}.oXoXv.Z.p iXiXiXiX",
"iXiXiXiXg.J.s OXoXXXoX|.{.|.oXXXoXoX{.{. X}.oXoXOX&.J.g.iXiXiXiX",
"iXiXiX, A.] Z oXoX}.%.n.^.E.S |. XD E.^.n.@.}.oX}.&Xm.V.i iXiXiX",
"iXiXiXQ P.< {.=.}.oXK i.H.o j !.!.k o 9.a.C oXXX}.OX`.K.1 iXiXiX",
"iXiXiXj.0.d OXXXoX=.|.!.3.w g 5.6.j r <.(.|.XXoXXX}.%XK.g.iXiXiX",
"iXiXiXf.7.B OX=.oX=.|.Q.3.0 .Xk.u..Xe :.~.|.=.=.oX}.#XS.r.iXiXiX",
"iXiXiXC.1.Z oX=.Y oX}.W.>.9 OXk.u.OXw :.E.|.=.}.=.U =XG.d.iXiXiX",
"iXiXiXC.1.A #XoX=.=.|.#.:.9 |.k.y.OXe / E.|.Y XX#XXX-XG.d.iXiXiX",
"iXiXiXf.8.B $ % oX=.|.#./ 9 &X} t.OXw ^ E.|.=.oX5 6 ;XR.r.iXiXiX",
"iXiXiXj.0.f @   U oX}.*.,.; b { | [.+ :.%. XXXP   $ 1XT.W iXiXiX",
"iXiXiX2 K.k c . q #X=.|.%.' : ` ) > ( O.OXXXoXt X v ].q.1 iXiXiX",
"iXiXiXp Z.y.A u # P XX=.}.oX@.....X.-. XXXoXY O 7 -X).B.i iXiXiX",
"iXiXiXiXg.P.g @X8 q +XXX=.oX}. XOX|.oXXXoXXX6 l @X6XP.! iXiXiXiX",
"iXiXiXiXp A.4.P T H t XXXXoX=.Y =.=.oXoX}.e F qX0XF.V.p iXiXiXiX",
"iXiXiXiXiXE I.} *X$X+XL M P }.}.}.Y S M +XG 3X9X_.J.h iXiXiXiXiX",
"iXiXiXiXiX= ~ L.i.D *XrX4XR G K P L T 5XeX:X2X_.H.! * iXiXiXiXiX",
"iXiXiXiXiXiX4 ~ I.v.x =X8XyX5XtX;.>XuXwX9X6XF.q.! = iXiXiXiXiXiX",
"iXiXiXiXiXiXiX* 1 Z.P.c.@.;.-X-X=X-X%X'.G.P.V.h * iXiXiXiXiXiXiX",
"iXiXiXiXiXiXiXiXiXa ~ V.P.w.b.M.M.S.K.e.B.! p iXiXiXiXiXiXiXiXiX",
"iXiXiXiXiXiXiXiXiXiXiXi 1 g.r.d.d.r.W h i iXiXiXiXiXiXiXiXiXiXiX",
"iXiXiXiXiXiXiXiXiXiXiXiXiXiXiXiXiXiXiXiXiXiXiXiXiXiXiXiXiXiXiXiX",
"iXiXiXiXiXiXiXiXiXiXiXiXiXiXiXiXiXiXiXiXiXiXiXiXiXiXiXiXiXiXiXiX",
"iXiXiXiXiXiXiXiXiXiXiXiXiXiXiXiXiXiXiXiXiXiXiXiXiXiXiXiXiXiXiXiX"
};
