/* XPM */
static char *_f19a6b7801d4d19c3568caf3b3e1567[] = {
/* columns rows colors chars-per-pixel */
"16 16 139 2 ",
"   c #242834",
".  c #2B303C",
"X  c #6E7D20",
"o  c #67782C",
"O  c #697A2C",
"+  c #637431",
"@  c #637432",
"#  c #607135",
"$  c #657736",
"%  c #66773E",
"&  c #687A3C",
"*  c #4C5357",
"=  c #495A66",
"-  c #50626E",
";  c #566A6B",
":  c #596D6D",
">  c #596674",
",  c #616F62",
"<  c #61796C",
"1  c #60786D",
"2  c #616E72",
"3  c #647573",
"4  c #687579",
"5  c #667A79",
"6  c #667A7A",
"7  c #6C7D7B",
"8  c #807023",
"9  c #827224",
"0  c #837326",
"q  c #847526",
"w  c #82722A",
"e  c #84752A",
"r  c #897B2A",
"t  c #8A7D2B",
"y  c #8B7D2B",
"u  c #8B7E2B",
"i  c #88792D",
"p  c #887A2D",
"a  c #897C2D",
"s  c #8C7F2F",
"d  c #718120",
"f  c #6F8249",
"g  c #758844",
"h  c #738648",
"j  c #778C4D",
"k  c #788C48",
"l  c #788D48",
"z  c #798D49",
"x  c #6E835B",
"c  c #738852",
"v  c #728758",
"b  c #778C5F",
"n  c #798F5B",
"m  c #788D5F",
"M  c #7F9558",
"N  c #6F8460",
"B  c #708564",
"V  c #778E60",
"C  c #758B68",
"Z  c #768C68",
"A  c #7B9161",
"S  c #799066",
"D  c #698174",
"F  c #6E867E",
"G  c #748375",
"H  c #718A7D",
"J  c #758D7E",
"K  c #898320",
"L  c #8B8422",
"P  c #8D8623",
"I  c #8D8624",
"U  c #8B812A",
"Y  c #8F862B",
"T  c #8C802F",
"R  c #908B24",
"E  c #908B25",
"W  c #918C26",
"Q  c #918A2C",
"!  c #919925",
"~  c #929925",
"^  c #939B2A",
"/  c #949C29",
"(  c #949E2B",
")  c #979F2E",
"_  c #809137",
"`  c #849830",
"'  c #819238",
"]  c #839439",
"[  c #85973C",
"{  c #8EA23B",
"}  c #8EA33C",
"|  c #8EA33D",
" . c #98A031",
".. c #9DA637",
"X. c #91A53F",
"o. c #829753",
"O. c #91A34A",
"+. c #9DB24D",
"@. c #8DA25D",
"#. c #99AA51",
"$. c #99AB53",
"%. c #A4B954",
"&. c #91A460",
"*. c #93A561",
"=. c #5B7281",
"-. c #657280",
";. c #687583",
":. c #637B81",
">. c #657D82",
",. c #667D83",
"<. c #667F82",
"1. c #677F82",
"2. c #617884",
"3. c #617A86",
"4. c #627B87",
"5. c #657C85",
"6. c #677D85",
"7. c #667D86",
"8. c #677E86",
"9. c #677E87",
"0. c #677F87",
"q. c #637B89",
"w. c #667E89",
"e. c #677E8A",
"r. c #6F7D89",
"t. c #6D8482",
"y. c #698188",
"u. c #6A8189",
"i. c #69808C",
"p. c #6A828E",
"a. c #6A828F",
"s. c #738B81",
"d. c #7A8490",
"f. c #7C8894",
"g. c #809386",
"h. c #878F9B",
"j. c #91A496",
"k. c #8B94A0",
"l. c None",
/* pixels */
"l.l.l.l.l.l.l.l.l.l.l.l.l.l.l.l.",
"l.l.l.l.l.l.s R R u l.l.l.l.l.l.",
"l.l.l.l.T ! ' k k [ ( a l.l.l.l.",
"l.l.l.Q ` 1 2.> ;.2.D { Y l.l.l.",
"l.l.s ` =.a.y.3 7 y.w.q.X.p l.l.",
"l.l.! 1 y.C m 1.1.b Z 6.H ) l.l.",
"l.u _ 2.6.M d f h X o.6.w.O.q l.",
"l.R k a.6.S & c j % A 9.a.@.P l.",
"l.R g = w.V + x v # m 6.- @.P l.",
"l.u ]   : s.$ o o + J ; . #.9 l.",
"l.l.( , * 1.t.B N F 1.* G ..l.l.",
"l.l.i | -.4 6 1.1.6 2 f.%.w l.l.",
"l.l.l.Y | g.h.d.r.k.j.+.U l.l.l.",
"l.l.l.l.p ^ O.&.&.#. .e l.l.l.l.",
"l.l.l.l.l.l.9 K L 9 l.l.l.l.l.l.",
"l.l.l.l.l.l.l.l.l.l.l.l.l.l.l.l."
};
