/* XPM */
static char *_84b378e68b64a09b8c7729f25fca2c6[] = {
/* columns rows colors chars-per-pixel */
"64 64 256 2 ",
"   c #020202",
".  c #0B0B0B",
"X  c #151909",
"o  c #121515",
"O  c #1B1C1C",
"+  c #101219",
"@  c #0E1212",
"#  c #1E251C",
"$  c #20271D",
"%  c #373F06",
"&  c #191C25",
"*  c #1C2323",
"=  c #1F2628",
"-  c #232222",
";  c #21292C",
":  c #2B2C2C",
">  c #20272B",
",  c #2B3435",
"<  c #2E3A3B",
"1  c #333434",
"2  c #323C3C",
"3  c #3B3D3D",
"4  c #2E322F",
"5  c #4E382C",
"6  c #4C342E",
"7  c #513B2E",
"8  c #4F3134",
"9  c #523534",
"0  c #553D31",
"q  c #5C3B3C",
"w  c #573A37",
"e  c #603F3C",
"r  c #3E450A",
"t  c #3C4B33",
"y  c #485117",
"u  c #596507",
"i  c #5A6518",
"p  c #6D7B0A",
"a  c #687609",
"s  c #6E7D1A",
"d  c #677516",
"f  c #485727",
"g  c #424F32",
"h  c #5C4234",
"j  c #485733",
"k  c #63453B",
"l  c #66483B",
"z  c #69493E",
"x  c #5B6A25",
"c  c #586837",
"v  c #637222",
"b  c #687728",
"n  c #65763F",
"m  c #2F3A49",
"M  c #374643",
"N  c #3C4B4B",
"B  c #3A4746",
"V  c #384855",
"C  c #3F5154",
"Z  c #434C4C",
"A  c #474848",
"S  c #46544B",
"D  c #435354",
"F  c #4C5455",
"G  c #4B5C5C",
"H  c #45565A",
"J  c #525B5B",
"K  c #575656",
"L  c #50574A",
"P  c #664341",
"I  c #694542",
"U  c #6E4944",
"Y  c #724D46",
"T  c #754D4A",
"R  c #784F4C",
"E  c #775346",
"W  c #7D5C46",
"Q  c #775149",
"!  c #79524A",
"~  c #615E5E",
"^  c #576847",
"/  c #526452",
"(  c #7F6044",
")  c #62754F",
"_  c #6A7B49",
"`  c #647650",
"'  c #667950",
"]  c #62765E",
"[  c #4A5E64",
"{  c #4A5F69",
"}  c #4D626A",
"|  c #4E6161",
" . c #536363",
".. c #56696A",
"X. c #5A6E6D",
"o. c #576566",
"O. c #596F74",
"+. c #556B75",
"@. c #5D7374",
"#. c #5D737A",
"$. c #5E736A",
"%. c #646666",
"&. c #696A6A",
"*. c #636869",
"=. c #627676",
"-. c #6B7272",
";. c #607779",
":. c #657B7C",
">. c #697E7D",
",. c #647972",
"<. c #727474",
"1. c #767B7B",
"2. c #7A7A7B",
"3. c #617466",
"4. c #856E3F",
"5. c #87723D",
"6. c #89743D",
"7. c #8B7B3A",
"8. c #816542",
"9. c #846B40",
"0. c #77870E",
"q. c #7C8C16",
"w. c #72821E",
"e. c #7C8C1A",
"r. c #718016",
"t. c #7F9312",
"y. c #7E900D",
"u. c #7B8C22",
"i. c #798928",
"p. c #6D8137",
"a. c #728539",
"s. c #778A39",
"d. c #7E932E",
"f. c #788C48",
"g. c #748955",
"h. c #6C8168",
"j. c #758C6E",
"k. c #748866",
"l. c #6C8372",
"z. c #6B827C",
"x. c #768C72",
"c. c #7A9171",
"v. c #79906F",
"b. c #869B0C",
"n. c #899E0C",
"m. c #82930F",
"M. c #8C9D15",
"N. c #82941A",
"B. c #869A17",
"V. c #8EA20B",
"C. c #8CA107",
"Z. c #92A50E",
"A. c #99AB0E",
"S. c #93A80F",
"D. c #8FA115",
"F. c #8DA21C",
"G. c #91A313",
"H. c #96AA12",
"J. c #9AAC13",
"K. c #91A31A",
"L. c #95A91E",
"P. c #9DB215",
"I. c #9FB119",
"U. c #A2B514",
"Y. c #A5B915",
"T. c #A9BD16",
"R. c #A3B61A",
"E. c #A5BA1B",
"W. c #AABE1A",
"Q. c #8D9D23",
"!. c #8C9F29",
"~. c #83972A",
"^. c #9A9B2D",
"/. c #98962E",
"(. c #8F8336",
"). c #8F8039",
"_. c #928A33",
"`. c #918438",
"'. c #918636",
"]. c #879937",
"[. c #969231",
"{. c #989431",
"}. c #8EA22A",
"|. c #9EA42A",
" X c #95A829",
".X c #9DB121",
"XX c #8FA235",
"oX c #91A43E",
"OX c #91A235",
"+X c #9FB53C",
"@X c #A3AD26",
"#X c #A0A828",
"$X c #A6B424",
"%X c #AABD21",
"&X c #ADC31D",
"*X c #AFC81D",
"=X c #ABC017",
"-X c #B1C61E",
";X c #B1CA1E",
":X c #AEC321",
">X c #B1C621",
",X c #B2CA21",
"<X c #889B47",
"1X c #8FA14C",
"2X c #93A640",
"3X c #93A456",
"4X c #839872",
"5X c #9DB074",
"6X c #657C85",
"7X c #687F82",
"8X c #687F89",
"9X c #647B88",
"0X c #6A8182",
"qX c #6C848A",
"wX c #6C8585",
"eX c #718484",
"rX c #738989",
"tX c #7A8585",
"yX c #7E928A",
"uX c #738C93",
"iX c #778F98",
"pX c #7C959D",
"aX c #799193",
"sX c #7F99A2",
"dX c #868C8D",
"fX c #8B8C8C",
"gX c #838383",
"hX c #839594",
"jX c #8A9A99",
"kX c #979696",
"lX c #97AC84",
"zX c #9DB28A",
"xX c #94A79E",
"cX c #8AA193",
"vX c #A2B796",
"bX c #839CA5",
"nX c #8AA4AC",
"mX c #8DA6A4",
"MX c #9BA3A3",
"NX c #97A5A5",
"BX c #98B2B8",
"VX c #95AEAE",
"CX c #A5ADAD",
"ZX c #A8A8A8",
"AX c #A8BEA3",
"SX c #A7B6B6",
"DX c #B5B6B6",
"FX c #B9BBBB",
"GX c #ACC3BA",
"HX c #9FBAC0",
"JX c #A3BEC1",
"KX c #B7C5C2",
"LX c #CACCCC",
"PX c #C7C6C6",
"IX c #D7D8D8",
"UX c None",
/* pixels */
"UXUXUXUXUXUXUXUXUXUXUXUXUXUXUXUXUXUXUXUXUXUXUXUXUXUXUXUXUXUXUXUXUXUXUXUXUXUXUXUXUXUXUXUXUXUXUXUXUXUXUXUXUXUXUXUXUXUXUXUXUXUXUXUX",
"UXUXUXUXUXUXUXUXUXUXUXUXUXUXUXUXUXUXUXUXUXUXUXUXUXUXUXUXUXUXUXUXUXUXUXUXUXUXUXUXUXUXUXUXUXUXUXUXUXUXUXUXUXUXUXUXUXUXUXUXUXUXUXUX",
"UXUXUXUXUXUXUXUXUXUXUXUXUXUXUXUXUXUXUXUXUXUXUXUXUXUXUXUXUXUXUXUXUXUXUXUXUXUXUXUXUXUXUXUXUXUXUXUXUXUXUXUXUXUXUXUXUXUXUXUXUXUXUXUX",
"UXUXUXUXUXUXUXUXUXUXUXUXUXUXUXUXUXUXUXUXUXUXUXUXUXUXUXUXUXUXUXUXUXUXUXUXUXUXUXUXUXUXUXUXUXUXUXUXUXUXUXUXUXUXUXUXUXUXUXUXUXUXUXUX",
"UXUXUXUXUXUXUXUXUXUXUXUXUXUXUXUXUXUXUXUXUXUXUXUXUXUXUXUXUXUXUXUXUXUXUXUXUXUXUXUXUXUXUXUXUXUXUXUXUXUXUXUXUXUXUXUXUXUXUXUXUXUXUXUX",
"UXUXUXUXUXUXUXUXUXUXUXUXUXUXUXUXUXUXUXUXUXUXUXUXUXUXUX9 w q q q q q q 9 9 UXUXUXUXUXUXUXUXUXUXUXUXUXUXUXUXUXUXUXUXUXUXUXUXUXUXUX",
"UXUXUXUXUXUXUXUXUXUXUXUXUXUXUXUXUXUXUXUXUXUXUXq I U E ( 9.6.).'.`.7.6.4.W Q U P w UXUXUXUXUXUXUXUXUXUXUXUXUXUXUXUXUXUXUXUXUXUXUX",
"UXUXUXUXUXUXUXUXUXUXUXUXUXUXUXUXUXUXUXUX0 U T ( 7./.$X%X:X;X;X;X;X;X;X&X%X@X{.6.W Y I 7 UXUXUXUXUXUXUXUXUXUXUXUXUXUXUXUXUXUXUXUX",
"UXUXUXUXUXUXUXUXUXUXUXUXUXUXUXUXUXUX0 U R 5./.%X&X,X,X;X;X-X&X&X-X-X-X-X,X,X;X&X%X[.8.T U 5 UXUXUXUXUXUXUXUXUXUXUXUXUXUXUXUXUXUX",
"UXUXUXUXUXUXUXUXUXUXUXUXUXUXUXUXUXU R 4.|.&X;X:X,XW.U.M.q.s v v v b w.e.F.J.W.-X>X;X:X^.8.T z UXUXUXUXUXUXUXUXUXUXUXUXUXUXUXUXUX",
"UXUXUXUXUXUXUXUXUXUXUXUXUXUXUXh Y W /.&X;X:X:XI.q.x j S H [ } +.+...}  .G c b N.J.&X>X;X:X_.E Y 7 UXUXUXUXUXUXUXUXUXUXUXUXUXUXUX",
"UXUXUXUXUXUXUXUXUXUXUXUXUXUXl T 5.$X;X>X&XJ.s g C } #.7X0X0XeX:.;.wXwX0X7X6X#.o.^ w.H.&X>X;X@X8.Q h UXUXUXUXUXUXUXUXUXUXUXUXUXUX",
"UXUXUXUXUXUXUXUXUXUXUXUXUXz R (.&X&X:XE.w.t D #.0XwX0X0X0X0XwX .J qX7X7X0X0X0X0X6X#.) w.U.:X-X%X6.Q k UXUXUXUXUXUXUXUXUXUXUXUXUX",
"UXUXUXUXUXUXUXUXUXUXUXUXz R _.;X:X:XD.f C #.0X0Xz.7X0X0X;.;.z. .*.z.>.>.0X7X7X7X7X0X7X@._ M.:X:X&X7.R k UXUXUXUXUXUXUXUXUXUXUXUX",
"UXUXUXUXUXUXUXUXUXUXUXl Q _.;X&X&Xq.t } 0X0X0X0X0X0X0X0XO.: 8 &.gXdX-.=.0X0X7Xz.7Xz.0X0X6X] N.W.:X;X7.Q h UXUXUXUXUXUXUXUXUXUXUX",
"UXUXUXUXUXUXUXUXUXUXh T (.*X:X&Xr.M +.0X0X0X>.0X7X0X0X0XwX:.D &.kXdX>.7X0X0X0X0X0X7X7X7X>.qX=.e.T.&X;X5.T 7 UXUXUXUXUXUXUXUXUXUX",
"UXUXUXUXUXUXUXUXUXUXT 5.&X:X&Xs M @.0X0X0X0X0X0X0X0X0X0X6XqXF K 4X1.0X7X0X0X0X0X0X0X7X0X0X7X0X>.u.W.:X%X8.Y UXUXUXUXUXUXUXUXUXUX",
"UXUXUXUXUXUXUXUXUXU W $X&X&Xq.M ;.wX0X0X0X0X0X0X0X0X0X0X0X;.2 X.6X%.:.0X7X0X0X0X0X0X0X7X7X0Xz.qXz.N.&X;X#XE l UXUXUXUXUXUXUXUXUX",
"UXUXUXUXUXUXUXUXh T /.;X:XD.t O.wX7X0X0X0X0X0X0X0X0X0X0XwX;.X.wX6X@.:.0X0X7X0X0X0X0X0X0X0X0X0X>.rXl.D.:X;X(.T UXUXUXUXUXUXUXUXUX",
"UXUXUXUXUXUXUXUXU 9.&X:XE.f { wX>.0X0X0X0X0X0X0X0X0X0X0X0X0XwX0X7X7X0X0X0X0X0X0X0X0X0X0X0X0X0X0X>.uXg.P.>X%XW I UXUXUXUXUXUXUXUX",
"UXUXUXUXUXUXUX0 Q |.;X:Xs N 0X0X7X0X0X7X0X0X0X0X0X0X0X0X0X>.7X0X7X7X7X7X0X0Xz.0X0X0X0X0X0X0X0X0X0X0XuX~.W.-X{.T UXUXUXUXUXUXUXUX",
"UXUXUXUXUXUXUXI 9.&X:XJ.t #.0Xz.0X0X0X0X7X6X7X7X0X9X9X0X0X0X0X0X7X7X1.7X6X6X7X8X6X6X6X0X0X0X0X7X0X>.uXc.H.>X%X( l UXUXUXUXUXUXUX",
"UXUXUXUXUXUXUXT /.;X:Xd D wX0X7X0X0X0X0Xz.c.x.j.j.j.j.v.0X0X7X0Xz.0X0XwXx.j.j.x.j.j.c.z.0X0X0X0X0X0Xz.pX].W.;X_.U UXUXUXUXUXUXUX",
"UXUXUXUXUXUXh W %X,XI.g O.wX7X0X0X0X0X7Xz.L.W.&X&X=X;XJ.L 0X0X7X0Xz.wXJ M.;X&X=X&X&XJ.v.6X0X0X0X0X0X>.uXv.A.,X@XE 9 UXUXUXUXUXUX",
"UXUXUXUXUXUXI 6.;X;Xq.N 0X0X0X0X0X0X7X0XwXG y &XE.:Xi   , 9X9X9X6X6XqXm   r :XE.>Xi N wX0Xz.0X0X0X0X0X0XhXQ.&X;X9.k UXUXUXUXUXUX",
"UXUXUXUXUXUXU ^.;X&Xx { wX7X>.0X0X0X0X>.0X0XO..XW.I.X V g.+X2X2X2X2X+X<XH . B.:XE.3.6X0X0X0X0X0X0X0X0X:.sX<XY.;X`.I UXUXUXUXUXUX",
"UXUXUXUXUXUXE @X;XI.g @.wX7X7X0X0X0X0X0X0X0XwX XW.D.# :.` u H.=XY.U.u c wX= 0.&X.Xz.0X0X0X0X0X0X0X0X0X>.iX4XJ.;X^.T UXUXUXUXUXUX",
"UXUXUXUXUX9 ( %X;XD.B 7X0Xz.0X0X0X0X0X0X0X0XwXOXW.D.$ ;.#.V x T.E.i.m O.0X; 0.&XI.z.0X0X0X0X0X0X0X0X0X7XuXcXK.;X$XE UXUXUXUXUXUX",
"UXUXUXUXUXw 9.;X,Xe.D 0X0X7X0X0X0X0X0X0X0X0X0X XY.M.$ :.wXqX' P.Y.s.6XwX7X> 0.W.L.z.0X0X0X0X0X0X0X0X0X0X0XmXQ.;X%XW 8 UXUXUXUXUX",
"UXUXUXUXUXq 6.;X-Xs H wX7X0X0X0X0X0X0X0X0X0X6X XU.M.$ ;.0X6X' P.P.s.6X0X0X; 0.E.L.z.0X0X0X0X0X0X0X0X0X0X>.nX].=X:X9.9 UXUXUXUXUX",
"UXUXUXUXUXq 7.;X-Xv [ wXz.0X0X0X0X0X0X0X0X0X7X}.P.b.* :.0X6X' J.P.s.#.0X0X> p R.L.z.6X0X0X0X0X0X0X0X0X0X>.nX<XT.;X4.8 UXUXUXUXUX",
"UXUXUXUXUXq `.;X&Xv } wX7X7X7X0X7X0X0X0X0X0X7X}.P.b.$ ;.wX7X' H.J.s.6X0X0X= 0.I.L.z.0X0X0X0X0X0X7X0X0X0X>.nX1XY.,X5.8 UXUXUXUXUX",
"UXUXUXUXUXq (.*X&Xv } wX7X0X0X0X0X0X0X0X0X0X0X}.P.m.- ;.wX6X` S.A.a.#.wX0X; p I.F.z.0X0X0X0X7X0X0Xz.0X0X;.nX1XY.;X6.8 UXUXUXUXUX",
"UXUXUXUXUXq ).;X-Xv } wX0XrXqX0X6X0X0X0X0X0X0X!.J.t.$ :.wX6X` S.H.a.6X0X0X; p P.F.z.0X0X0X0X0X7X0XqX0X7X>.nX1X=X;X9.8 UXUXUXUXUX",
"UXUXUXUXUXq 6.;X-Xs [ wX@.2 B @.z.0X0X0X0X0X0X~.A.y.$ ;.z.6X) Z.S.p.6X0X0X> p H.F.z.7X0X0X7X0Xz.>.N  .uX>.VXOX=X:X9.9 UXUXUXUXUX",
"UXUXUXUXUX9 9.&X-Xq.G o.o .   2 0X0X0X0X0X0X0Xd.Z.y.$ ;.0X6X) D.S.p.6Xz.z.> a H.B.z.0X0X7X0X7X0X<   O 1 =.BX}.;X%XW 6 UXUXUXUXUX",
"UXUXUXUXUX9 W %X,XF.S =.1 *   1 0X0X0X0X0X0X9Xf.C.M.X H eX0X` n.V.p.6XwX..@ 0.Z.d.6X0X0X7X0X0X>.* . 4 N qXAXK.;X$XQ UXUXUXUXUXUX",
"UXUXUXUXUXUXE @X;XU.j 6XJ : O o +.0X0Xz.0X0X0Xz.e.S.u + D @.) b.n.p.;...& % D.b.k.8X0X0X0X0X0X..@ * 3 Z sXzXH.,X^.U UXUXUXUXUXUX",
"UXUXUXUXUXUXU {.;XW.v +.>.: 8 O , 0X0X6X0X0X0X0Xl.t.V.d 4 , g b.V.x m ; y b.n.f.8Xz.0X7X>.7XwXN   1 : A BX3XR.,X).I UXUXUXUXUXUX",
"UXUXUXUXUXUXP 6.;X>Xe.G 7X- , : @ #.0Xz.0X0X0XwX0Xz.s.n.b.d d B.b.d i 0.n.e.g.qX0X7Xz.0X0X0X=.; : 4 Z 7XSX}.&X:X8.q UXUXUXUXUXUX",
"UXUXUXUXUXUXq W $X>XP.c 9X@.A A = M 7X7X>.7X0X0X0X7X9Xl.f.d.t.t.t.m.B.d.g.>.6X0X0X0X7Xz.7X0XD   &.A J nXzXA.,X#XR 7 UXUXUXUXUXUX",
"UXUXUXUXUXUXUXY [.;X&Xw.} wX<.2.F   O.7X0X0X>.0X7X0X0X0X9X7Xz.l.l.l.>.qXqX6Xz.0X0X7X0X6X7X0X* - 1 K >.HX2XT.;X).U UXUXUXUXUXUXUX",
"UXUXUXUXUXUXUXI 8.:X:XJ.^ :.7XL &.L * wX0X0X0X0X0Xz.7X0Xz.0X0X0X9X0X0X0Xz.0X7Xz.0X0X0Xz.7X, A ~ <.=.bXvXS.>X$XW k UXUXUXUXUXUXUX",
"UXUXUXUXUXUXUX7 Q ^.;X&Xw.} 7XfXgX- M O.:.0X7X0X0X0X0X0X0X0X0X0X0Xz.0X0X7X0X0X0X0X0X>.qX, 4 <.<.ZXeXJXOXW.,X'.Y UXUXUXUXUXUXUXUX",
"UXUXUXUXUXUXUXUXU ( &X&XY.c O.jX&.* fXK 1 z.0X0X0X0X0X7X0X0X0X0X0X0X0X0X0X6X0X0X0X:.0X2 3 7XFXdX@.BX5XA.,X$XW l UXUXUXUXUXUXUXUX",
"UXUXUXUXUXUXUXUX7 T _.;X&XK./ 6XhXfX%.kXo O.#.0XwXz.7Xz.z.0X0X0X0X0X0X0X0Xz.0X0XqXwX< %.K fXMXxXsXAXD.:X&X7.T UXUXUXUXUXUXUXUXUX",
"UXUXUXUXUXUXUXUXUXz E @X;X&XN.o.6XjXLX7XN NX*.N ;.0X0X0X0X7X0X0X0X0X7X0X0X0XwX;.| ;.M -.PX-.rXuXGXQ.W.;X^.Q k UXUXUXUXUXUXUXUXUX",
"UXUXUXUXUXUXUXUXUXUXY ( :X>XW.e.X.7Xz.;.;.DXZXJ F H @.6X0XwX0XqXwX0X0X0X0XO.G 2 fXCX:.M DXjXuXKXOXY.,X$XW U UXUXUXUXUXUXUXUXUXUX",
"UXUXUXUXUXUXUXUXUXUX0 T 6.&X:X=Xe.$.qX0XrXMXD SXPX~ J F | G ;.....7X=.G D F *.fX1.DXBX:.@.sXGXXXU.,X%X8.Y UXUXUXUXUXUXUXUXUXUXUX",
"UXUXUXUXUXUXUXUXUXUXUXh T 7.;X:XW.N.] 9XeX:.NXIXFX&.IX2.<.kX2 1.<.>.D ZX2.dXPXIXtXDXhX:.BXAXQ.Y.,XW.4.R 0 UXUXUXUXUXUXUXUXUXUXUX",
"UXUXUXUXUXUXUXUXUXUXUXUXk R 7.&X:X&XG._ 7XqXrXyXdXMXLXZX*.DX1.IXkX@.J DXIXfXCXIXhXeXpXSX5XD.W.,XW.4.R 0 UXUXUXUXUXUXUXUXUXUXUXUX",
"UXUXUXUXUXUXUXUXUXUXUXUXUXk R 5.%X;X:XU.u.h.qXqXqXrXNXCXZXPXNXZXgX:.>.ZXKXNX>.>.sXBXvXXXA.&X;X$X8.R h UXUXUXUXUXUXUXUXUXUXUXUXUX",
"UXUXUXUXUXUXUXUXUXUXUXUXUXUXh Q ( #X;X:XW.H.u.k.eXuXwX0XaXwX>.hXaX>.0XrXwXiXnXVXlXoXS.W.,X;X/.W T 0 UXUXUXUXUXUXUXUXUXUXUXUXUXUX",
"UXUXUXUXUXUXUXUXUXUXUXUXUXUXUX5 Y R (.W.;X>X&XP.Q.f.v.dXaXaXpXpXpXbXnXmXxXlX3X}.A.T.,X;X$X7.R U UXUXUXUXUXUXUXUXUXUXUXUXUXUXUXUX",
"UXUXUXUXUXUXUXUXUXUXUXUXUXUXUXUXUXl T W [.%X;X,X-XT.A.K.Q.].].<X<XoX].}.H.J.U.&X,X;X$X_.! T k UXUXUXUXUXUXUXUXUXUXUXUXUXUXUXUXUX",
"UXUXUXUXUXUXUXUXUXUXUXUXUXUXUXUXUXUXUXI T ( '.@X&X;X;X;X;X=XW.T.Y.T.=X-X,X,X;X&X#X7.W T l UXUXUXUXUXUXUXUXUXUXUXUXUXUXUXUXUXUXUX",
"UXUXUXUXUXUXUXUXUXUXUXUXUXUXUXUXUXUXUXUXUXk U E 9.`.^.$X%X:X,X,X-X>X%X%X@X/.`.8.Q U h UXUXUXUXUXUXUXUXUXUXUXUXUXUXUXUXUXUXUXUXUX",
"UXUXUXUXUXUXUXUXUXUXUXUXUXUXUXUXUXUXUXUXUXUXUX9 e I Y E W 9.9.5.5.4.4.W E U I q 5 UXUXUXUXUXUXUXUXUXUXUXUXUXUXUXUXUXUXUXUXUXUXUX",
"UXUXUXUXUXUXUXUXUXUXUXUXUXUXUXUXUXUXUXUXUXUXUXUXUXUXUXUX6 9 8 8 8 8 9 8 UXUXUXUXUXUXUXUXUXUXUXUXUXUXUXUXUXUXUXUXUXUXUXUXUXUXUXUX",
"UXUXUXUXUXUXUXUXUXUXUXUXUXUXUXUXUXUXUXUXUXUXUXUXUXUXUXUXUXUXUXUXUXUXUXUXUXUXUXUXUXUXUXUXUXUXUXUXUXUXUXUXUXUXUXUXUXUXUXUXUXUXUXUX",
"UXUXUXUXUXUXUXUXUXUXUXUXUXUXUXUXUXUXUXUXUXUXUXUXUXUXUXUXUXUXUXUXUXUXUXUXUXUXUXUXUXUXUXUXUXUXUXUXUXUXUXUXUXUXUXUXUXUXUXUXUXUXUXUX",
"UXUXUXUXUXUXUXUXUXUXUXUXUXUXUXUXUXUXUXUXUXUXUXUXUXUXUXUXUXUXUXUXUXUXUXUXUXUXUXUXUXUXUXUXUXUXUXUXUXUXUXUXUXUXUXUXUXUXUXUXUXUXUXUX",
"UXUXUXUXUXUXUXUXUXUXUXUXUXUXUXUXUXUXUXUXUXUXUXUXUXUXUXUXUXUXUXUXUXUXUXUXUXUXUXUXUXUXUXUXUXUXUXUXUXUXUXUXUXUXUXUXUXUXUXUXUXUXUXUX",
"UXUXUXUXUXUXUXUXUXUXUXUXUXUXUXUXUXUXUXUXUXUXUXUXUXUXUXUXUXUXUXUXUXUXUXUXUXUXUXUXUXUXUXUXUXUXUXUXUXUXUXUXUXUXUXUXUXUXUXUXUXUXUXUX"
};
